# xmcd
#
# Track frame offsets: 
#        150
#        19023
#        39286
#        51315
#        63270
#        79309
#        96205
#        115924
#        135129
#        150801
#        172141
#        192750
#        213051
#        230548
#        253539
#        266491
#        284360
#        303562
#        326798
#
# Disc length: 4603 seconds
#
# Revision: 8
# Processed by: cddbd v1.5.2PL0 Copyright (c) Steve Scherf et al.
# Submitted via: ExactAudioCopyFreeDBPlugin 1.0
#
DISCID=fc11f913
DTITLE=Joe Cocker - The Life Of A Man - The Ultimate Hits 1968-2013 [D
DTITLE=isc 1]
DYEAR=2015
DGENRE=Blues
TTITLE0=Feelin' Alright
TTITLE1=High Time We Went
TTITLE2=Marjorine
TTITLE3=She Came In Through The Bathroom Window
TTITLE4=I Can Stand A Little Rain
TTITLE5=Many Rivers To Cross
TTITLE6=Shelter Me
TTITLE7=You Can Leave Your Hat On
TTITLE8=Can't Find My Way Home
TTITLE9=Darling Be Home Soon
TTITLE10=One
TTITLE11=My Father's Son
TTITLE12=Fire It Up
TTITLE13=Unchain My Heart
TTITLE14=Delta Lady
TTITLE15=Cry Me A River (Live At The Fillmore East)
TTITLE16=The Letter (Live At The Fillmore East)
TTITLE17=With A Little Help From My Friends
TTITLE18=You Are So Beautiful (Live At The Lanxess Arena)
EXTD=YEAR: 2015
EXTT0=
EXTT1=
EXTT2=
EXTT3=
EXTT4=
EXTT5=
EXTT6=
EXTT7=
EXTT8=
EXTT9=
EXTT10=
EXTT11=
EXTT12=
EXTT13=
EXTT14=
EXTT15=
EXTT16=
EXTT17=
EXTT18=
PLAYORDER=
